<svg width="20" height="20" viewBox="0 0 20 20" fill="none" xmlns="http://www.w3.org/2000/svg">
<g clip-path="url(#clip0_362_2236)">
<path d="M16.3675 0C15.1644 0 14.0962 0.588555 13.4348 1.49297H9.81434V0.588086C9.81434 0.264492 9.55199 0.00214844 9.2284 0.00214844H6.08941C5.76582 0.00214844 5.50348 0.264492 5.50348 0.588086V1.49297H4.54113C4.21754 1.49297 3.9552 1.75531 3.9552 2.07891C3.9552 2.4025 4.21754 2.66484 4.54113 2.66484H5.50348V3.72594H5.36641C5.04281 3.72594 4.78047 3.98828 4.78047 4.31188V6.65988C1.97965 7.79691 0 10.5412 0 13.7384C0 14.9537 0.293516 16.1634 0.848789 17.2366C1.38566 18.2742 2.1684 19.1902 3.1123 19.8858C3.21301 19.96 3.3348 20 3.45988 20H11.8579C11.9829 20 12.1047 19.96 12.2054 19.8858C13.1493 19.1902 13.932 18.2741 14.4689 17.2365C15.0242 16.1634 15.3177 14.9537 15.3177 13.7384C15.3177 10.5413 13.338 7.79703 10.5373 6.65996V4.31188C10.5373 3.98828 10.2749 3.72594 9.95133 3.72594H9.81426V2.66484H12.8666C12.779 2.98101 12.7347 3.30759 12.7348 3.63566C12.7348 5.64035 14.3644 7.27133 16.3674 7.27133C18.3704 7.27133 20 5.64035 20 3.63566C20 1.63098 18.3704 0 16.3675 0ZM5.9523 6.47211V4.89781H9.36543V6.47211H5.9523ZM14.1459 13.7384C14.1459 14.7818 13.9044 15.7776 13.4282 16.698C13.0023 17.5211 12.3934 18.2542 11.6606 18.8282H3.65715C2.92438 18.2542 2.31551 17.5212 1.88961 16.698C1.41336 15.7776 1.17188 14.7818 1.17188 13.7384C1.17188 10.9307 2.97613 8.5357 5.48934 7.64398H9.8284C12.3416 8.5357 14.1459 10.9307 14.1459 13.7384ZM6.67531 3.7259V1.17402H8.64242V3.72594L6.67531 3.7259ZM16.3675 6.09945C15.0107 6.09945 13.9068 4.99422 13.9068 3.63566C13.9068 2.27711 15.0106 1.17188 16.3675 1.17188C17.7243 1.17188 18.8281 2.27711 18.8281 3.63566C18.8281 4.99422 17.7243 6.09945 16.3675 6.09945Z" fill="white"/>
</g>
<defs>
<clipPath id="clip0_362_2236">
<rect width="20" height="20" fill="white"/>
</clipPath>
</defs>
</svg>
