<svg width="24" height="24" viewBox="0 0 24 24" fill="none" xmlns="http://www.w3.org/2000/svg">
<path d="M4.2045 6.96647C4.25116 6.98237 4.30049 6.9889 4.34968 6.98568C4.39886 6.98245 4.44692 6.96955 4.4911 6.9477C4.53529 6.92586 4.57472 6.8955 4.60713 6.85837C4.63955 6.82124 4.66431 6.77807 4.68 6.73135L5.54625 4.1701C5.57566 4.07657 5.56727 3.97523 5.52287 3.88782C5.47848 3.8004 5.40161 3.73384 5.30874 3.70241C5.21586 3.67098 5.11437 3.67717 5.02601 3.71966C4.93765 3.76215 4.86944 3.83755 4.836 3.92972L3.96975 6.49097C3.93784 6.58516 3.94464 6.68816 3.98866 6.77734C4.03268 6.86651 4.11032 6.93454 4.2045 6.96647ZM5.07788 10.2263C5.12453 10.2422 5.17387 10.2488 5.22305 10.2456C5.27223 10.2423 5.3203 10.2294 5.36448 10.2076C5.40866 10.1857 5.44809 10.1554 5.48051 10.1182C5.51293 10.0811 5.53769 10.0379 5.55338 9.99122L6.42 7.42997C6.43579 7.38331 6.44222 7.334 6.43895 7.28485C6.43568 7.2357 6.42275 7.18768 6.40092 7.14353C6.37909 7.09937 6.34877 7.05995 6.3117 7.02751C6.27463 6.99508 6.23154 6.97026 6.18488 6.95447C6.13822 6.93869 6.08891 6.93225 6.03976 6.93553C5.99061 6.9388 5.94259 6.95172 5.89843 6.97356C5.85428 6.99539 5.81486 7.02571 5.78242 7.06277C5.74998 7.09984 5.72516 7.14294 5.70938 7.1896L4.84275 9.75085C4.82696 9.79751 4.82051 9.84682 4.82378 9.89597C4.82705 9.94513 4.83997 9.99315 4.8618 10.0373C4.88364 10.0815 4.91396 10.1209 4.95103 10.1533C4.98811 10.1858 5.03121 10.2106 5.07788 10.2263Z" fill="white"/>
<path d="M21.375 10.5003C21.0561 10.4959 20.7456 10.6026 20.4968 10.8022C20.9295 8.86157 20.2448 7.10019 18.8779 6.73381C18.4981 6.63599 18.098 6.65216 17.7274 6.78031C17.8112 6.57438 17.9426 6.39116 18.1106 6.24556C18.2527 6.13802 18.4161 6.06213 18.5899 6.023C18.7637 5.98386 18.9438 5.9824 19.1183 6.01869C19.2168 6.03212 19.3167 6.00584 19.3959 5.94564C19.475 5.88544 19.5271 5.79625 19.5405 5.69769C19.5539 5.59913 19.5277 5.49927 19.4675 5.42008C19.4073 5.3409 19.3181 5.28887 19.2195 5.27544C18.9429 5.22413 18.6586 5.23237 18.3854 5.29962C18.1123 5.36687 17.8566 5.49158 17.6355 5.66544C17.3405 5.91865 17.1167 6.24453 16.9864 6.61081C16.7255 6.29555 16.3744 6.06761 15.9803 5.95756C15.6963 5.88795 15.4011 5.87699 15.1128 5.92534C14.8244 5.9737 14.549 6.08037 14.3033 6.23881C13.9113 5.68684 13.3735 5.25484 12.75 4.99119V4.12531C12.8495 4.12531 12.9448 4.08581 13.0152 4.01548C13.0855 3.94515 13.125 3.84977 13.125 3.75031V2.25031C13.125 2.15086 13.0855 2.05548 13.0152 1.98515C12.9448 1.91482 12.8495 1.87531 12.75 1.87531H9.75C9.65055 1.87531 9.55516 1.91482 9.48484 1.98515C9.41451 2.05548 9.375 2.15086 9.375 2.25031V3.75031C9.375 3.84977 9.41451 3.94515 9.48484 4.01548C9.55516 4.08581 9.65055 4.12531 9.75 4.12531V4.99081C9.02336 5.29694 8.4154 5.83017 8.01713 6.51069C6.9 3.60969 5.2035 0.745814 3.64125 1.16506C2.77613 1.39681 2.29613 2.56569 2.25263 4.54569C2.26118 6.57942 2.53294 8.60348 3.06113 10.5674C2.91903 10.5222 2.77073 10.4996 2.62163 10.5003C2.52217 10.5003 2.42679 10.5398 2.35646 10.6101C2.28614 10.6805 2.24663 10.7759 2.24663 10.8753V22.5003C2.24663 22.5998 2.28614 22.6952 2.35646 22.7655C2.42679 22.8358 2.52217 22.8753 2.62163 22.8753H21.375C21.4745 22.8753 21.5698 22.8358 21.6402 22.7655C21.7105 22.6952 21.75 22.5998 21.75 22.5003V10.8753C21.75 10.7759 21.7105 10.6805 21.6402 10.6101C21.5698 10.5398 21.4745 10.5003 21.375 10.5003ZM15.786 6.68169C16.0152 6.76029 16.2227 6.8917 16.3918 7.0653C16.5608 7.23891 16.6867 7.44984 16.7591 7.68107C16.7807 7.73546 16.8147 7.78405 16.8584 7.82296C16.9021 7.86187 16.9543 7.89001 17.0108 7.90513C17.0673 7.92025 17.1266 7.92194 17.1839 7.91006C17.2412 7.89817 17.2949 7.87305 17.3408 7.83669C17.5193 7.6728 17.7338 7.55314 17.9671 7.48735C18.2003 7.42157 18.4458 7.41149 18.6836 7.45794C19.665 7.72119 20.139 9.27032 19.7183 10.8412C19.6564 11.0659 19.5774 11.2855 19.482 11.4982C19.2015 11.4929 19.0635 11.3639 18.8333 11.1187C18.6946 10.9272 18.5125 10.7714 18.302 10.6639C18.0914 10.5564 17.8584 10.5003 17.622 10.5003C17.3856 10.5003 17.1526 10.5564 16.942 10.6639C16.7315 10.7714 16.5494 10.9272 16.4108 11.1187C16.176 11.3692 16.0399 11.5001 15.747 11.5001C15.4541 11.5001 15.3188 11.3692 15.0833 11.1187C14.9411 10.9313 14.7585 10.7784 14.549 10.6713C14.3396 10.5643 14.1087 10.5058 13.8735 10.5003C13.5892 10.4962 13.3107 10.5815 13.0774 10.7441C13.0098 10.1914 13.051 9.63092 13.1985 9.09407C13.6193 7.52394 14.799 6.41731 15.786 6.68169ZM10.125 2.62531H12.375V3.37531H10.125V2.62531ZM10.2435 5.60619C10.3182 5.58131 10.3832 5.53355 10.4292 5.46967C10.4753 5.4058 10.5 5.32905 10.5 5.25031V4.12531H12V5.25031C12 5.32905 12.0247 5.4058 12.0708 5.46967C12.1168 5.53355 12.1818 5.58131 12.2565 5.60619C12.8456 5.80406 13.3554 6.18628 13.7104 6.69631C13.1089 7.30737 12.682 8.06835 12.474 8.90019C12.2494 9.697 12.2334 10.5382 12.4275 11.3429C12.3095 11.4475 12.1565 11.5037 11.9989 11.5004C11.7064 11.5004 11.5699 11.3692 11.3351 11.1187C11.1966 10.9272 11.0146 10.7714 10.8042 10.6639C10.5937 10.5564 10.3608 10.5003 10.1244 10.5003C9.88812 10.5003 9.65517 10.5564 9.44471 10.6639C9.23425 10.7714 9.05229 10.9272 8.91375 11.1187C8.679 11.3696 8.5425 11.5004 8.25038 11.5004L8.25 8.37219C8.24943 7.76013 8.44173 7.16345 8.79959 6.66691C9.15746 6.17038 9.66268 5.79923 10.2435 5.60619ZM3.83625 1.88956C4.62788 1.67881 6.28688 3.78369 7.60163 7.55806C7.53745 7.82466 7.50349 8.09762 7.50038 8.37181V11.0279C7.36222 10.8637 7.19002 10.7315 6.99571 10.6404C6.8014 10.5493 6.58961 10.5015 6.375 10.5003C6.13956 10.5058 5.90838 10.5642 5.69862 10.6712C5.48885 10.7783 5.30591 10.9312 5.16338 11.1187C4.92825 11.3692 4.79138 11.5004 4.49813 11.5004C4.41359 11.5021 4.32957 11.4869 4.25092 11.4559C4.17227 11.4249 4.10054 11.3786 4.03988 11.3197C3.99002 11.1479 3.94165 10.9756 3.89475 10.8029C3.31674 8.77257 3.01676 6.67319 3.003 4.56219C3.04275 2.74531 3.45938 1.99044 3.8355 1.88956H3.83625ZM2.99625 11.3609C3.10198 11.4411 3.19913 11.5319 3.28613 11.6321C3.4287 11.8195 3.61166 11.9723 3.82142 12.0793C4.03118 12.1863 4.26235 12.2447 4.49775 12.2501C4.73329 12.2448 4.9646 12.1865 5.1745 12.0795C5.3844 11.9725 5.56748 11.8196 5.71013 11.6321C5.94525 11.3808 6.08138 11.2503 6.37463 11.2503C6.66788 11.2503 6.80363 11.3812 7.03838 11.6317C7.1769 11.8232 7.35888 11.9792 7.56938 12.0867C7.77987 12.1942 8.01288 12.2503 8.24925 12.2503C8.48563 12.2503 8.71863 12.1942 8.92913 12.0867C9.13962 11.9792 9.32161 11.8232 9.46013 11.6317C9.69525 11.3812 9.83138 11.2503 10.1239 11.2503C10.4164 11.2503 10.5525 11.3812 10.7876 11.6317C10.9262 11.8232 11.1081 11.9792 11.3186 12.0867C11.5291 12.1942 11.7621 12.2503 11.9985 12.2503C12.2349 12.2503 12.4679 12.1942 12.6784 12.0867C12.8889 11.9792 13.0709 11.8232 13.2094 11.6317C13.4445 11.3812 13.5806 11.2503 13.8731 11.2503C14.1656 11.2503 14.3018 11.3812 14.5369 11.6317C14.6754 11.8231 14.8574 11.979 15.0678 12.0865C15.2783 12.194 15.5112 12.2501 15.7476 12.2501C15.9839 12.2501 16.2168 12.194 16.4273 12.0865C16.6378 11.979 16.8197 11.8231 16.9583 11.6317C17.045 11.5328 17.1418 11.4432 17.247 11.3643V22.1253H2.997L2.99625 11.3609ZM21 22.1253H17.9966V11.3639C18.1023 11.443 18.1995 11.5328 18.2865 11.6321C18.4253 11.8235 18.6075 11.9793 18.8182 12.0867C19.0288 12.1941 19.2619 12.2501 19.4983 12.2501C19.7348 12.2501 19.9678 12.1941 20.1785 12.0867C20.3891 11.9793 20.5713 11.8235 20.7101 11.6321C20.7971 11.5319 20.8943 11.4411 21 11.3609V22.1253Z" fill="white"/>
</svg>
