<svg width="24" height="24" viewBox="0 0 24 24" fill="none" xmlns="http://www.w3.org/2000/svg">
<g clip-path="url(#clip0_362_2239)">
<path fill-rule="evenodd" clip-rule="evenodd" d="M11.6545 11.2346C11.1797 11.2346 10.7949 11.6194 10.7949 12.0942C10.7949 12.569 11.1486 13.4725 11.6241 13.4725C11.7289 13.4725 11.8508 13.4264 11.9571 13.3754C11.9884 13.3623 12.022 13.3555 12.056 13.3555C12.0899 13.3555 12.1235 13.3623 12.1548 13.3754C12.2611 13.4264 12.383 13.4725 12.4879 13.4725C12.8054 13.4725 13.0648 13.0707 13.2051 12.6625C13.0888 12.6124 12.9897 12.5293 12.92 12.4236C12.8504 12.3178 12.8132 12.1939 12.8132 12.0672C12.8131 11.9604 12.8395 11.8552 12.89 11.761C12.9404 11.6668 13.0134 11.5865 13.1023 11.5273C13.0219 11.4354 12.9227 11.3617 12.8115 11.3112C12.7003 11.2608 12.5796 11.2346 12.4574 11.2346C12.3469 11.2346 12.2307 11.3083 12.1279 11.3458C12.0763 11.3625 12.0208 11.3625 11.9692 11.3458C11.8671 11.3083 11.7658 11.2346 11.6545 11.2346ZM12.4801 10.9717C12.3143 11.1623 12.0606 11.18 12.0606 11.18C12.0606 11.18 12.0429 10.9256 12.208 10.7357C12.3738 10.5444 12.6282 10.5273 12.6282 10.5273C12.6282 10.5273 12.6459 10.7818 12.4801 10.9717Z" fill="white"/>
<path fill-rule="evenodd" clip-rule="evenodd" d="M7.82922 0C7.35719 0.00130987 6.90488 0.189452 6.57117 0.523296C6.23745 0.857139 6.04949 1.30953 6.04837 1.78156V2.40659H6.28223V2.5469H6.04837V3.3902H6.04624C6.02156 3.39058 5.99802 3.40069 5.98076 3.41835C5.96351 3.436 5.95393 3.45977 5.95412 3.48445V4.04713C5.95393 4.05953 5.95621 4.07185 5.96083 4.08336C5.96545 4.09487 5.97231 4.10535 5.98101 4.11419C5.98972 4.12303 6.00009 4.13004 6.01153 4.13483C6.02298 4.13962 6.03526 4.14209 6.04766 4.14209V4.98326H6.04554C6.03325 4.98344 6.02112 4.98605 6.00984 4.99092C5.99857 4.99579 5.98836 5.00284 5.9798 5.01166C5.97125 5.02047 5.96451 5.03089 5.95999 5.04231C5.95546 5.05373 5.95322 5.06593 5.95341 5.07822V6.57844C5.95322 6.59084 5.9555 6.60316 5.96012 6.61467C5.96474 6.62618 5.9716 6.63667 5.9803 6.6455C5.98901 6.65434 5.99938 6.66136 6.01083 6.66615C6.02227 6.67093 6.03455 6.6734 6.04695 6.6734V7.23324H6.04554C6.03325 7.23342 6.02112 7.23602 6.00984 7.2409C5.99857 7.24577 5.98836 7.25282 5.9798 7.26163C5.97125 7.27045 5.96451 7.28087 5.95999 7.29229C5.95546 7.30371 5.95322 7.31591 5.95341 7.3282V8.73488C5.95322 8.74728 5.9555 8.75959 5.96012 8.77111C5.96474 8.78262 5.9716 8.7931 5.9803 8.80194C5.98901 8.81077 5.99938 8.81779 6.01083 8.82258C6.02227 8.82737 6.03455 8.82984 6.04695 8.82983V21.4368H6.28081V21.5778H6.04695V22.2177C6.04807 22.6898 6.23604 23.1422 6.56975 23.476C6.90346 23.8098 7.35577 23.998 7.8278 23.9993H16.1715C16.6437 23.9982 17.0961 23.8101 17.43 23.4762C17.7639 23.1424 17.9519 22.6899 17.9531 22.2177V21.5778H17.7192V21.4368H17.9531V8.36921C17.9654 8.36921 17.9776 8.36677 17.989 8.36202C18.0004 8.35728 18.0108 8.35032 18.0195 8.34156C18.0281 8.3328 18.035 8.3224 18.0397 8.31097C18.0443 8.29954 18.0467 8.2873 18.0466 8.27496V5.64798C18.0467 5.63563 18.0443 5.62339 18.0397 5.61196C18.035 5.60053 18.0281 5.59013 18.0195 5.58137C18.0108 5.57261 18.0004 5.56566 17.989 5.56091C17.9776 5.55617 17.9654 5.55372 17.9531 5.55372V2.5469H17.7192V2.40659H17.9531V1.78156C17.9519 1.3094 17.7639 0.85691 17.43 0.523046C17.0961 0.189183 16.6437 0.00112284 16.1715 0L7.82922 0ZM7.82922 0.750465H8.95244C9.00212 0.750465 9.04978 0.770153 9.08498 0.805218C9.12017 0.840283 9.14004 0.887867 9.14023 0.93755V1.0318C9.14042 1.18079 9.19968 1.32361 9.30503 1.42896C9.41038 1.53431 9.55321 1.59358 9.70219 1.59376H14.3432C14.4923 1.59376 14.6353 1.53458 14.7408 1.42921C14.8463 1.32384 14.9057 1.18091 14.9058 1.0318V0.93755C14.906 0.887989 14.9258 0.840512 14.9608 0.805467C14.9959 0.770422 15.0434 0.750652 15.0929 0.750465H16.1729C16.7505 0.750465 17.204 1.204 17.204 1.78156V22.2192C17.2054 22.355 17.1797 22.4897 17.1284 22.6154C17.0771 22.7412 17.0012 22.8554 16.9052 22.9514C16.8091 23.0474 16.6949 23.1233 16.5692 23.1747C16.4434 23.226 16.3087 23.2517 16.1729 23.2502H7.82922C7.69336 23.2517 7.55858 23.2259 7.43279 23.1746C7.30701 23.1232 7.19274 23.0473 7.0967 22.9512C7.00066 22.8551 6.92478 22.7407 6.87351 22.6149C6.82224 22.4891 6.79661 22.3543 6.79813 22.2184V1.78085C6.79813 1.204 7.25167 0.750465 7.82922 0.750465Z" fill="white"/>
</g>
<defs>
<clipPath id="clip0_362_2239">
<rect width="24" height="24" fill="white"/>
</clipPath>
</defs>
</svg>
