<svg width="24" height="24" viewBox="0 0 24 24" fill="none" xmlns="http://www.w3.org/2000/svg">
<g clip-path="url(#clip0_362_2244)">
<path d="M23.9694 18.5898H22.5428C22.6663 18.4169 22.7408 18.2061 22.7408 17.9775V5.69465C22.7404 5.41386 22.6286 5.14468 22.43 4.94617C22.2315 4.74766 21.9622 4.63602 21.6814 4.63574H2.30474C2.024 4.63607 1.75485 4.74775 1.55634 4.94626C1.35783 5.14477 1.24616 5.41392 1.24582 5.69465V17.9775C1.24582 18.2107 1.32411 18.4251 1.45242 18.6005H0.0121361C0.0121361 18.6005 -0.0525416 18.666 0.118048 18.8363C0.60177 19.3203 1.68831 19.3621 1.68831 19.3621V19.3609C1.68831 19.3609 22.0406 19.3657 22.0632 19.3644C23.1977 19.3644 23.564 19.0243 23.8639 18.8259C24.086 18.6028 23.9694 18.5898 23.9694 18.5898ZM13.3537 18.8481H10.627V18.6628H13.3533L13.3537 18.8481ZM21.959 17.7341H1.996V5.34971H21.9592L21.959 17.7341Z" fill="white"/>
</g>
<defs>
<clipPath id="clip0_362_2244">
<rect width="24" height="24" fill="white"/>
</clipPath>
</defs>
</svg>
