<svg width="24" height="24" viewBox="0 0 24 24" fill="none" xmlns="http://www.w3.org/2000/svg">
<path d="M10.2383 9.81166C9.98279 9.99243 9.76385 10.22 9.59306 10.4823C9.57288 10.5132 9.55899 10.5478 9.55218 10.5841C9.54537 10.6204 9.54578 10.6577 9.55339 10.6938C9.56099 10.73 9.57564 10.7643 9.5965 10.7948C9.61736 10.8252 9.64401 10.8513 9.67495 10.8715C9.70589 10.8917 9.74049 10.9056 9.7768 10.9124C9.8131 10.9192 9.85039 10.9188 9.88653 10.9112C9.92268 10.9036 9.95697 10.8889 9.98746 10.8681C10.0179 10.8472 10.044 10.8206 10.0642 10.7896C10.1963 10.5865 10.3658 10.4104 10.5636 10.2704C10.6239 10.227 10.6646 10.1616 10.6768 10.0883C10.6891 10.0151 10.6718 9.93995 10.6289 9.87936C10.5859 9.81876 10.5208 9.77761 10.4476 9.7649C10.3744 9.75218 10.2992 9.76892 10.2383 9.81147V9.81166Z" fill="white"/>
<path d="M5.14453 21.8722H3.08297V8.98813C3.08297 8.98345 3.08362 8.97913 3.08362 8.97454C3.08362 6.75018 4.79963 4.94052 6.90886 4.94052C8.93653 4.94052 10.5999 6.6133 10.7255 8.71888C10.1229 8.79052 9.56739 9.08049 9.16408 9.53396C8.76076 9.98742 8.53758 10.5729 8.53673 11.1798V11.6193C8.53673 11.6939 8.56637 11.7654 8.61911 11.8181C8.67186 11.8709 8.74339 11.9005 8.81798 11.9005H10.0695C10.1939 12.3505 10.5959 12.6829 11.0667 12.6829C11.5375 12.6829 11.9394 12.3507 12.0637 11.9005H13.2126C13.2872 11.9005 13.3587 11.8709 13.4114 11.8181C13.4642 11.7654 13.4938 11.6939 13.4938 11.6193V11.1798C13.493 10.5702 13.2679 9.98223 12.8613 9.52798C12.4548 9.07373 11.8953 8.78499 11.2895 8.71682C11.1615 6.30168 9.24577 4.37793 6.90891 4.37793C4.49756 4.37793 2.53453 6.42637 2.52141 8.94923C2.52094 8.95574 2.52042 8.96226 2.52042 8.96887V21.8721H0.75C0.675408 21.8721 0.603871 21.9018 0.551126 21.9545C0.498382 22.0073 0.46875 22.0788 0.46875 22.1534C0.46875 22.228 0.498382 22.2995 0.551126 22.3523C0.603871 22.405 0.675408 22.4346 0.75 22.4346H5.14453C5.21912 22.4346 5.29066 22.405 5.3434 22.3523C5.39615 22.2995 5.42578 22.228 5.42578 22.1534C5.42578 22.0788 5.39615 22.0073 5.3434 21.9545C5.29066 21.9018 5.21912 21.8721 5.14453 21.8721V21.8722ZM11.0666 12.1205C10.9887 12.1193 10.9123 12.0985 10.8445 12.0601C10.7766 12.0216 10.7195 11.9668 10.6784 11.9006H11.4548C11.4137 11.9668 11.3566 12.0216 11.2888 12.06C11.2209 12.0985 11.1446 12.1192 11.0666 12.1205ZM12.9313 11.1798V11.338H9.09923V11.1798C9.09923 10.6717 9.3011 10.1843 9.66042 9.82499C10.0197 9.46567 10.5071 9.2638 11.0153 9.2638C11.5234 9.2638 12.0108 9.46567 12.3701 9.82499C12.7294 10.1843 12.9313 10.6717 12.9313 11.1798Z" fill="white"/>
<path d="M22.203 17.5269V15.6659C22.2002 15.3521 22.073 15.0521 21.8493 14.8319C21.6257 14.6117 21.3238 14.4892 21.0099 14.4912H15.8633C15.7066 14.4904 15.5514 14.5208 15.4065 14.5806C15.2617 14.6404 15.1301 14.7284 15.0196 14.8394C14.9964 14.8629 14.9746 14.887 14.9537 14.9118C14.841 14.7797 14.7008 14.6736 14.5431 14.601C14.3853 14.5284 14.2136 14.4909 14.0399 14.4912H8.86406C8.55019 14.4892 8.24832 14.6117 8.02466 14.8319C7.801 15.0521 7.67381 15.3521 7.671 15.6659V17.5322C7.33434 17.562 7.02084 17.7161 6.7916 17.9644C6.56235 18.2127 6.43379 18.5375 6.43097 18.8755V22.1538C6.43097 22.2284 6.4606 22.2999 6.51335 22.3527C6.56609 22.4054 6.63763 22.435 6.71222 22.435H8.8928C8.96739 22.435 9.03893 22.4054 9.09167 22.3527C9.14442 22.2999 9.17405 22.2284 9.17405 22.1538V21.7791L20.7882 21.7827V22.1538C20.7882 22.2284 20.8179 22.2999 20.8706 22.3527C20.9233 22.4054 20.9949 22.435 21.0695 22.435H23.25C23.3246 22.435 23.3961 22.4054 23.4489 22.3527C23.5016 22.2999 23.5313 22.2284 23.5313 22.1538V18.8754C23.5281 18.5222 23.3877 18.1841 23.1399 17.9324C22.892 17.6808 22.556 17.5354 22.203 17.5269ZM15.418 15.2363C15.4764 15.1778 15.5459 15.1315 15.6223 15.1001C15.6988 15.0688 15.7807 15.0529 15.8633 15.0535H21.0099C21.1747 15.0512 21.3335 15.1145 21.4517 15.2292C21.5699 15.344 21.6378 15.5009 21.6405 15.6656V17.6264C21.3901 17.7259 21.1753 17.898 21.0234 18.1205C20.8716 18.343 20.7897 18.6058 20.7882 18.8752V18.9854L15.2344 18.984L15.2351 15.694C15.2337 15.6093 15.2492 15.5253 15.2806 15.4467C15.312 15.3682 15.3587 15.2966 15.418 15.2363ZM8.86406 15.0535H14.0398C14.2046 15.0512 14.3635 15.1145 14.4817 15.2293C14.5999 15.3441 14.6677 15.5012 14.6703 15.6659L14.6716 18.9838L9.17405 18.9823V18.8754C9.17229 18.59 9.08039 18.3125 8.91148 18.0824C8.74256 17.8524 8.50527 17.6816 8.2335 17.5945V15.6659C8.23613 15.5012 8.30399 15.3442 8.42219 15.2294C8.5404 15.1146 8.69931 15.0514 8.86406 15.0536V15.0535ZM8.61155 21.8723H6.99347V18.8754C6.99925 18.6646 7.08703 18.4645 7.23812 18.3175C7.38922 18.1705 7.5917 18.0882 7.80251 18.0882C8.01331 18.0882 8.2158 18.1705 8.3669 18.3175C8.51799 18.4645 8.60576 18.6646 8.61155 18.8754V21.8723ZM9.17405 21.2163V19.5448L14.9527 19.5464H14.9531L20.7882 19.548V21.22L9.17405 21.2163ZM22.9688 21.8724H21.3507V18.8754C21.3563 18.6645 21.444 18.4641 21.5951 18.3169C21.7462 18.1698 21.9488 18.0874 22.1597 18.0874C22.3707 18.0874 22.5733 18.1698 22.7244 18.3169C22.8755 18.4641 22.9632 18.6645 22.9688 18.8754V21.8724Z" fill="white"/>
</svg>
