<svg width="24" height="24" viewBox="0 0 24 24" fill="none" xmlns="http://www.w3.org/2000/svg">
<path d="M1.875 11.625C1.87499 11.6416 1.87609 11.6581 1.87828 11.6746L3.29152 22.2737C3.32824 22.5436 3.46137 22.7911 3.66632 22.9706C3.87128 23.15 4.13422 23.2492 4.40663 23.25H20.25C20.5483 23.2496 20.8342 23.131 21.0451 22.9201C21.256 22.7092 21.3747 22.4232 21.375 22.125V20.6498L22.8717 9.42458C22.8717 9.42294 22.8717 9.42134 22.8721 9.41989C22.873 9.4123 22.8735 9.40461 22.8739 9.39688C22.8742 9.39125 22.8747 9.38567 22.8748 9.38005V7.87499C22.8748 7.77553 22.8353 7.68015 22.7649 7.60982C22.6946 7.53949 22.5992 7.49999 22.4998 7.49999H15C14.9005 7.49999 14.8052 7.53949 14.7348 7.60982C14.6645 7.68015 14.625 7.77553 14.625 7.87499V9.37967C14.625 9.3853 14.6255 9.39088 14.6258 9.3965C14.6263 9.40424 14.6268 9.41192 14.6277 9.41952C14.6277 9.42111 14.6277 9.4227 14.628 9.4242L15.3194 14.6093C14.5655 14.552 14.3324 14.348 14.2642 14.2523C14.2398 14.2179 14.2236 14.1785 14.2166 14.1369C14.2096 14.0954 14.2121 14.0528 14.2238 14.0124C14.2491 13.9568 14.2598 13.8957 14.2549 13.8349C14.25 13.774 14.2296 13.7155 14.1957 13.6647C14.1605 13.6124 14.1126 13.5699 14.0565 13.5411C14.0004 13.5123 13.938 13.4982 13.875 13.5C13.1289 13.5 12.5538 13.6453 12.0802 13.8612L12.3717 11.6746C12.3739 11.6581 12.375 11.6416 12.375 11.625C12.3743 10.7264 12.1255 9.84552 11.6561 9.07933C11.1867 8.31315 10.5148 7.69144 9.71461 7.28272C9.7466 7.21432 9.75715 7.13785 9.74489 7.06335L9.36989 4.81335C9.3553 4.72578 9.31012 4.64624 9.24239 4.58886C9.17466 4.53148 9.08877 4.49999 9 4.49999H8.625V2.99999H11.25C11.3495 2.99999 11.4448 2.96048 11.5152 2.89015C11.5855 2.81983 11.625 2.72444 11.625 2.62499V1.12499C11.625 1.07364 11.6145 1.02284 11.594 0.97574C11.5736 0.928638 11.5437 0.886233 11.5062 0.851155C11.4687 0.816078 11.4244 0.789073 11.376 0.771816C11.3277 0.754558 11.2763 0.747416 11.2251 0.75083L5.60006 1.12583C5.52578 1.13078 5.45466 1.15773 5.39575 1.20324C5.33684 1.24876 5.29281 1.31077 5.26927 1.38139L4.89427 2.50639C4.87547 2.56276 4.87035 2.62279 4.87931 2.68153C4.88827 2.74027 4.91105 2.79604 4.94579 2.84424C4.98054 2.89245 5.02623 2.9317 5.07912 2.95878C5.13201 2.98586 5.19058 2.99998 5.25 2.99999H5.625V4.49999H5.25C5.16123 4.49999 5.07534 4.53148 5.00761 4.58886C4.93988 4.64624 4.8947 4.72578 4.88011 4.81335L4.50511 7.06335C4.49285 7.13785 4.5034 7.21432 4.53539 7.28272C3.73517 7.69144 3.06333 8.31315 2.59391 9.07933C2.12449 9.84552 1.87571 10.7264 1.875 11.625ZM17.25 22.5H8.20158C8.11499 22.4999 8.03197 22.4655 7.97075 22.4042C7.90952 22.343 7.87509 22.26 7.875 22.1734V18.3266C7.87509 18.24 7.90952 18.157 7.97075 18.0957C8.03197 18.0345 8.11499 18.0001 8.20158 18H17.2984C17.385 18.0001 17.468 18.0345 17.5293 18.0957C17.5905 18.157 17.6249 18.24 17.625 18.3266V22.1734C17.6249 22.26 17.5905 22.343 17.5293 22.4042C17.468 22.4655 17.385 22.4999 17.2984 22.5H17.25ZM9 16.5H16.5V17.25H9V16.5ZM20.625 22.125C20.6249 22.2244 20.5853 22.3197 20.515 22.39C20.4447 22.4603 20.3494 22.4999 20.25 22.5H18.3242C18.3579 22.3944 18.375 22.2842 18.375 22.1734V21H20.625V22.125ZM20.6719 20.25H18.375V18.3266C18.3747 18.0411 18.2611 17.7675 18.0593 17.5657C17.8575 17.3638 17.5838 17.2503 17.2984 17.25H17.25V16.125C17.25 16.1145 17.2493 16.1042 17.2485 16.0939C17.2485 16.0924 17.2481 16.0897 17.2478 16.0874V16.0861C17.2196 15.8403 17.1453 15.6021 17.0288 15.3838C16.9348 15.2005 16.8012 15.0403 16.6375 14.9151C16.4739 14.7898 16.2844 14.7027 16.0828 14.6599L15.4283 9.74999H22.0717L20.6719 20.25ZM15.375 8.24999H22.125V8.99999H15.375V8.24999ZM13.6368 14.6636C13.9539 15.1356 14.6648 15.375 15.75 15.375C16.0312 15.375 16.225 15.486 16.3603 15.7245C16.365 15.733 16.3697 15.7415 16.374 15.75H10.7354C10.8954 15.6274 11.0478 15.4986 11.1989 15.3708C11.8095 14.8541 12.3898 14.363 13.4773 14.2669C13.5014 14.409 13.5558 14.5443 13.6368 14.6636ZM5.90114 1.85741L10.875 1.52581V2.24999H5.77031L5.90114 1.85741ZM6.375 2.99999H7.875V4.49999H6.375V2.99999ZM5.31769 6.74999L5.56767 5.24999H8.68233L8.93231 6.74999H5.31769ZM6.75 7.49999H7.5C8.58943 7.5012 9.63425 7.93284 10.4069 8.7009C11.1795 9.46896 11.6173 10.5112 11.625 11.6006L11.2573 14.3578C11.0643 14.5022 10.8865 14.6525 10.7144 14.7981C10.1109 15.3089 9.58964 15.75 8.625 15.75C8.52554 15.75 8.43016 15.7895 8.35983 15.8598C8.28951 15.9301 8.25 16.0255 8.25 16.125V17.25H8.20158C7.91615 17.2503 7.64251 17.3638 7.44068 17.5657C7.23885 17.7675 7.12532 18.0411 7.125 18.3266V22.1734C7.12496 22.2842 7.14209 22.3944 7.17577 22.5H4.40663C4.31582 22.4997 4.22817 22.4666 4.15986 22.4068C4.09154 22.347 4.04716 22.2645 4.03491 22.1745L2.625 11.6006C2.63267 10.5112 3.0705 9.46896 3.84312 8.7009C4.61575 7.93284 5.66057 7.5012 6.75 7.49999Z" fill="white"/>
<path d="M12.75 18.75C12.4533 18.75 12.1633 18.838 11.9166 19.0028C11.67 19.1676 11.4777 19.4019 11.3642 19.676C11.2506 19.9501 11.2209 20.2517 11.2788 20.5426C11.3367 20.8336 11.4796 21.1009 11.6893 21.3107C11.8991 21.5204 12.1664 21.6633 12.4574 21.7212C12.7483 21.7791 13.0499 21.7494 13.324 21.6358C13.5981 21.5223 13.8324 21.33 13.9972 21.0834C14.162 20.8367 14.25 20.5467 14.25 20.25C14.2496 19.8523 14.0914 19.471 13.8102 19.1898C13.529 18.9086 13.1477 18.7504 12.75 18.75ZM12.75 21C12.6017 21 12.4567 20.956 12.3333 20.8736C12.21 20.7912 12.1139 20.6741 12.0571 20.537C12.0003 20.4 11.9855 20.2492 12.0144 20.1037C12.0433 19.9582 12.1148 19.8246 12.2197 19.7197C12.3246 19.6148 12.4582 19.5433 12.6037 19.5144C12.7492 19.4855 12.9 19.5003 13.037 19.5571C13.1741 19.6139 13.2912 19.71 13.3736 19.8333C13.456 19.9567 13.5 20.1017 13.5 20.25C13.4998 20.4488 13.4207 20.6395 13.2801 20.7801C13.1395 20.9207 12.9488 20.9998 12.75 21ZM18.75 13.5C19.8187 13.5 20.625 13.0164 20.625 12.375C20.625 11.7336 19.8187 11.25 18.75 11.25C17.6813 11.25 16.875 11.7336 16.875 12.375C16.875 13.0164 17.6813 13.5 18.75 13.5ZM18.75 12C19.476 12 19.875 12.2817 19.875 12.375C19.875 12.4683 19.476 12.75 18.75 12.75C18.024 12.75 17.625 12.4683 17.625 12.375C17.625 12.2817 18.024 12 18.75 12ZM4.875 13.125H9.375C9.47446 13.125 9.56984 13.0855 9.64017 13.0152C9.71049 12.9448 9.75 12.8495 9.75 12.75V10.5C9.75 10.4005 9.71049 10.3052 9.64017 10.2348C9.56984 10.1645 9.47446 10.125 9.375 10.125H4.875C4.77554 10.125 4.68016 10.1645 4.60984 10.2348C4.53951 10.3052 4.5 10.4005 4.5 10.5V12.75C4.5 12.8495 4.53951 12.9448 4.60984 13.0152C4.68016 13.0855 4.77554 13.125 4.875 13.125ZM5.25 10.875H9V12.375H5.25V10.875Z" fill="white"/>
</svg>
